M48
;Layer_Color=9474304
;FILE_FORMAT=4:4
METRIC,LZ
;TYPE=PLATED
T01F00S00C0.2000
T02F00S00C0.5500
T03F00S00C0.8890
T04F00S00C1.0200
T05F00S00C1.1000
T06F00S00C1.3000
T07F00S00C2.5000
T08F00S00C3.3000
%
T01
X001095Y000135
X0013925Y0001225
X00164Y00012
X001915Y000125
X002145
X0024Y00013
X002625
X002905Y0001225
X0030575Y000265
X0032125Y0003825
X00342Y00027
X0036025Y000065
X00377Y00014
X00387Y0002
X00401Y00021
X0041775Y0003425
X00451Y0002
X0046375
X00507
X0053775Y0002525
X00571Y0002
X005865Y0002025
X00627Y0002
X00641
X0065775Y0002425
X00697Y00014
X0071775Y000205
X0105225Y000095
X01105001Y0002875
X01129Y000325
X01165001Y0002875
X01185001
X0117275Y0001525
X012025Y0001375
X01175001Y0004875
X011885Y00063
X01155001Y0008875
X0115325Y0013775
X01134Y00144
X01134Y00131
X01101Y00125
X01079Y00132
X0104289Y00125331
X0106025Y0017725
X01094Y00174
X01088Y00167
X01117Y00174
X01143
X01166
X0117425Y00181
X0119375
X0121875
X0124Y0018125
X01227Y00228
X01166Y00221
X01143
X01117
X01094
X01103Y00236
X0112825Y0024175
X01106Y00269
X0109Y00277
X01075
X010825Y00297
X01063Y00324
X01042Y00324
X01043Y00354
X01069
X01092
X01100237Y00362
X0113Y00369
X01153
X01175001Y0036875
X01195001
X01206237Y00365
X01205001Y0034875
X01225001
X01231763Y00341534
X01216Y00327
X01215Y003
X01185001Y0034875
X01164Y00354
X01141
X01142Y0042
X01165
X01185001Y0042875
X0107475Y00427
X0105825Y00422
X01043Y00422
X01054Y00369
X01045001Y0026875
Y0022875
X01065001
X01069Y000755
X01077Y00064
X01076Y00052
X01067
Y00043
X01076
X0110025Y00063908
X01092995Y00094
X01183Y00142
X01185001Y0014875
X01235001Y0004875
X010215Y0005675
Y0010375
X0100405Y001334
X01Y00143
X0101525Y0018525
X01035Y0017725
X01025001Y0022875
X01005001
X00985001
X00965001
X00945001
X00925001
X00905001
X00915001Y0024875
X00922237Y00269
X00945001Y0026875
X00965001
X00975001Y0028875
X00995001
X00975001Y0032875
X00955001
X00935001
X00915001
X00895
X00875
X00855
X00835
X00845Y0034875
X00855Y0036875
X00875
X00895
X00915001
X00935001
X00955001
X00975001
X00995001
X00985001Y0034875
X01006Y00344
X0102Y00354
X01031Y00369
X0102Y00422
X01035001Y0024875
X00975001
X00955001
X0096475Y0018475
X0093975
X009135
X00925001Y0014875
X00948Y00075
X00937Y00046
X00888Y00081
X00855Y0008875
X00854238Y00107
X00848238Y00119
X00835Y0008875
X00815
X00795
X00775
X00755
X00735
X00715
X00695
X00655
X0064225Y000825
X007065Y000475
X00708Y00163
X0071425Y00169
X0069775Y00171
X00694Y00177
Y00194
X00701
X00708
X00715
X00715Y0020875
X00715Y002205
X0070125
X00685Y0022875
X00675Y0024875
X00685Y0026875
X0070125Y0026825
X00715
X00715Y0024875
Y0028875
X00715Y0031675
X00715Y0032875
X0070125Y0031675
X00685Y0030875
X00675Y0032875
X00655
X00665Y0034875
X00685
X00675Y0036875
X00655
X00665Y0038875
X00685
X00687Y00407
X00694
X00701
X00708
X00715
X00722
X00729
X00715Y0036375
X0070125
X00645Y0034875
Y0026875
X00665
X00675Y0028875
X0068775Y0019725
X007345Y0019275
X00783Y0017
X00813
X00835Y0024875
X00845Y0026875
X00855Y0028875
X00875
X00885Y0030875
X00905001
X00865
X00845
X00835Y0028875
X00656Y0017
X0063
X00605
X0058
X00554
X00529
X00504
X00478
X00453
X004495Y00193
X00455Y0020875
X00475
X00495
X005155Y002055
Y001965
Y002145
X00525Y0022875
X00505
X00485
X00465
X00445
X00405
X003955Y002145
Y002055
Y001965
X00405Y0018875
X00416Y00183
X00423Y00185
X00412Y00177
X003965Y001725
X00391Y00168
X00375Y00158
Y00151
X00389Y00132
X00406Y00127
Y00119
X00415Y0008875
X0039925Y0008475
X00375Y0008875
X00349Y00099
Y00107
X0031375Y0011075
X0030025Y0008475
X00255Y0008875
X00283Y0012
X00272Y0017
X00255Y0016875
X0024575Y0019225
X00255Y0020875
X00295
X00315
X00335
X00325Y0018875
X00301Y0017075
X00349Y0017
X003545Y0017475
X0036175Y00181
X0036725Y0018625
X003705Y002
X00377Y00203
X00385Y0018875
X00365Y0022875
X00375Y0024875
X00355
X00335
X00315
X00295
X00305Y0026875
X00325
X00345
X00365
X00385
X00405
X00395Y0028875
X00375
X00355
X00335
X00315
X00295
X00285Y0026875
X00253Y00282
Y00289
Y00297
Y00304
Y00311
X0024375Y0031725
X003Y0031475
X0029975Y003345
X0028425Y0036575
X0033875Y00367
X00355Y0036875
X00373Y00367
X00395Y0036875
X0039775Y0038325
X0041175Y00367
X00435Y0036875
X0044325Y00367
Y00358
Y00351
Y00344
Y00337
Y0033
Y003225
X00445Y0030875
X0047625Y0030275
X00485Y0030875
X0048625Y003235
X004735
Y00337
Y00351
Y0036675
Y00385
X0044825
Y00436
X003915Y004275
X0032625Y0042725
X0033575Y003835
X00351Y00351
Y0033675
X00345Y0030875
X00365
X00385
X00325
X0044075Y002665
X00485Y0026875
X00505
X00525
X00515Y0028875
X0051125Y0030475
X00525Y0030875
X0053Y00324
X0051125Y0032375
X00557Y00324
X0057325Y003225
X00565Y0030875
X00575Y0028875
X00585Y0026875
X00565
X00575Y0024875
X00595
X00615
X00625Y0022875
X00605
X00585
X00565
X00575Y0020875
X00595
X00615
X006355Y002055
Y002145
Y001965
X0056925Y001925
X00575Y0008875
X00595
X00615
X006155Y000475
X005855
X00555Y0008875
X0053325Y00085
X00515Y0008875
X00495
X00475
X00455
X00435
X004655Y000475
X004955
X003745
X0042475Y0016575
X00430475Y00161707
X00475Y0024875
X00495
X00515
X00523Y00367
X00532
X00533Y00392
X00550036Y00397036
X00549768Y00382768
X00551Y0043
X0054
X00501711Y00421
X00507Y00411
X005025Y004055
X00595036Y00421035
X00595036Y00435036
X00628Y0040875
X0060425Y003845
X0060425Y0036725
X0061Y0036
X0061075Y0034475
X00607Y00328
X00617Y0033
X0062125Y00313
X006295Y00314
X00632Y00321
X00635Y0028875
X0063975Y003625
X00244094Y003885
X002585Y0042775
X00225Y0042875
X00228Y0041
X0022825Y0038575
Y003585
X00195Y0036875
X00135
Y0040875
X00155
X00145Y0042875
X00125
X00105
X00085
X00095Y0040875
X00115
X00105Y0038875
X00085
X00095Y0036875
X00075
X00065Y0034875
X00075Y0032875
X00085Y0030875
X00105
X00125
X00135Y0032875
X00155
X00164Y00304
X0017725Y0027925
X00155Y0024875
X00135
X00136Y00212
X00155Y0020875
X0016225Y001915
X00185Y00192
Y00212
X00211
X0021075Y002335
X002335Y00212
X00235Y0016875
X00211Y0017
X00205Y0018875
X0018575Y001695
X0019025Y00148
X00165Y0014875
X001585Y0013775
X00164Y0012
X00186
X00212
X00205Y0010875
Y0006875
X00185
X00165
X00155Y0008875
X00135
X00123Y00105
X00115Y0012875
X00125Y0014875
X00105
X00085
X00095Y0016875
X00115
X00135
X00155
X00105Y0018875
X00085
X00075Y0020875
X00055
X00035
X00045Y0022875
X00065
X00105
X00115Y0020875
X00065Y0026875
X00045
X00025
Y0022875
Y0018875
Y0014875
Y0010875
Y0006875
X00045
X00065
X00085
X00105
X0010875Y0008475
X00085Y0010875
X00075Y0012875
Y0004875
X0023475Y0008475
X002385Y001175
X002125Y0014375
X002435Y0027475
X00055Y0028875
X00065Y0030875
X00045
X00035Y0032875
X00025Y0034875
X00035Y0036875
X00045Y0038875
X00025
Y0042875
X00075Y0040875
X00095Y0044875
X00115
X00135
X00155
X00175
X00195
Y0048875
X00175
X00155
X00135
X00115
X00095
X00105Y0050875
X00125
X00145
X00165
X00155Y0052875
X00135
X00115
X00095
X00075
X00055
X00035
Y0048875
X00055
Y0044875
X00035
X00025Y0046875
X00085
X00105
X00125
X00145
X00165
X00225
X00235Y0048875
X00225Y0050875
X00225Y00543
X00225Y00552
X0023325Y0057825
X0015725Y005765
X00157Y005535
X0017425Y0055325
X00125Y0054875
X00105
X00085
Y0050875
X00105Y0058875
X0012725Y0058675
X002495Y005515
X0028275Y0055175
X00295Y0056875
X00308Y0057825
X00325Y0055825
X00353Y005585
X00345Y0054875
X00353678Y00522928
X003225Y00493
X00305Y0050875
X00295Y0052875
X00265Y0050875
X00245
X00255Y0048875
X00265Y0046875
X00291428Y00462178
X00359178Y00461678
X0039025Y004925
X00424428Y00461928
X00447Y00474
X004705Y0050175
X00502Y00504
X00502Y00516
X00528Y00516
X00528Y00504
X00538Y0052325
X00558Y00524
X00562Y00518
X0058775Y0052325
X0060825Y0054175
X00615Y00545
X00621654Y00549411
X00629108Y00553671
X006375Y0051875
X00622Y0049775
X0061825Y0046175
X00588Y0047025
X005765Y004765
Y004915
X005635Y0046925
X005355Y0047425
X00538Y00484
X0054Y00441
X00551
X00507711Y00441
X00501026Y00460623
X00482Y00445
X00475Y0043875
X00453087Y00554635
X00385337Y00555135
X0070125Y005415
X0071725Y0056075
X0078325Y00561
X0080725Y0054225
X00836335Y00560666
X0083875Y0052475
X0083875Y0051075
X0083625Y0047325
X0085Y00466
X00857Y00466
X00865Y0046875
X00885
X00894Y00466
X00901Y00466
X0090925Y00466
X00925001Y0046875
X00945001
X00954Y00466
X00986
X0101325Y0045225
X01036Y00466
X01032971Y0050325
X01005971Y00505
X00996971Y00518
X00983971Y00525
X009835Y00511
X009415
X00941Y00525
X0092075Y0053775
X00892Y0054025
X0086Y00538
X0087775Y0056225
X00885584Y00511166
X0086925Y004925
X0090025Y0048325
X0092025Y0049625
X00883Y00443
X00876Y00443
X00825Y00459
X00818Y00459
X0081075Y0048675
X0079675Y0048675
X0077875Y0048975
X007775Y0046575
X00785Y0046875
X00765
X00745
X00729Y00469
X00722
X00715
X00708
X00701
X00694
X00687Y0046875
X006705Y0045
X00650293Y00441192
X006425Y0044825
X0065875Y0049675
X0068675Y0051875
X00748Y0051775
X00761Y0049825
X0073
X0078075Y0051775
X00781Y00451
X00774Y00451
X009535Y00562
X01027Y0056225
X0102997Y00533
X010055Y005325
X0105225Y00533
Y00517
X01047Y0052175
X01040971Y00518
Y0050325
X0105175Y0050725
X01094Y00517
X01093501Y00496
X0111925Y0049625
X01117Y00511
X0113775Y0052725
X01175001Y0052875
X01185001Y0050875
X01195001Y0048875
X01215001
X012125Y0051325
X01235001Y0052875
Y0056875
X01205001Y0058875
X012Y00593
X01185001Y0058875
X01165001
X01158Y00593
X01137Y0057625
X011355Y0056925
X0112875Y0056725
X01126Y0056075
X01095Y0056225
X011625Y0055025
X01177Y00574
X01175Y00484
X01185001Y0046875
X01195001Y0044875
X01215001
X01175001
X0109825Y0044775
X0112075Y004735
T02
X01003Y00074
Y00088
T03
X000961Y000317
X001215
X001469
X001723
X001977
X002231
X002485
X002739
Y002603
X002485
Y003397
X002739
X002231
X001977
X001723
X001469
X001215
X000961
Y002603
X001215
X001469
X001723
X001977
X002231
Y005683
X001977
X001723
X001469
X001215
X000961
X002485
X002739
T04
X009Y00135
X009254
X009508
T05
X01053524Y00211125
X01078924
X01104324
X01129724
X01155124
X01180524
X01205924
X01231324
Y00388925
X01205924
X01180524
X01155124
X01129724
X01104324
X01078924
X01053524
X01028124
X01002724
X00977324
X00951924
X00926524
X00901124
X00875724
X00850324
X00824924
X00799524
X00774124
X00748724
Y00211125
X00774124
X00799524
X00824924
X00850324
X00875724
X00901124
X00926524
X00951924
X00977324
X01002724
X01028124
X005786Y005445
X005532
X005278
X005024
T06
X01219Y000873
Y001127
T07
X00658Y003065
X00423
Y005445
X00658
T08
X0004Y0004
X0121
X0004Y0056
X0121
M30
