G04*
G04 #@! TF.GenerationSoftware,Altium Limited,Altium Designer,25.8.1 (18)*
G04*
G04 Layer_Physical_Order=2*
G04 Layer_Color=32768*
%FSLAX44Y44*%
%MOMM*%
G71*
G04*
G04 #@! TF.SameCoordinates,74B96BC4-F20B-47FB-8E9B-22239AF92EBC*
G04*
G04*
G04 #@! TF.FilePolarity,Negative*
G04*
G01*
G75*
%ADD93C,1.0160*%
%ADD94C,1.4890*%
%ADD95C,1.7000*%
G04:AMPARAMS|DCode=96|XSize=2.413mm|YSize=2.413mm|CornerRadius=0mm|HoleSize=0mm|Usage=FLASHONLY|Rotation=0.000|XOffset=0mm|YOffset=0mm|HoleType=Round|Shape=Relief|Width=0.254mm|Gap=0.254mm|Entries=4|*
%AMTHD96*
7,0,0,2.4130,1.9050,0.2540,45*
%
%ADD96THD96*%
G04:AMPARAMS|DCode=97|XSize=2.624mm|YSize=2.624mm|CornerRadius=0mm|HoleSize=0mm|Usage=FLASHONLY|Rotation=0.000|XOffset=0mm|YOffset=0mm|HoleType=Round|Shape=Relief|Width=0.254mm|Gap=0.254mm|Entries=4|*
%AMTHD97*
7,0,0,2.6240,2.1160,0.2540,45*
%
%ADD97THD97*%
%ADD98C,1.6200*%
%ADD99C,1.1500*%
%ADD100C,1.9000*%
%ADD101C,0.8000*%
%ADD102C,3.1000*%
G36*
X825001Y230000D02*
X735001D01*
Y370000D01*
X825001D01*
Y230000D01*
D02*
G37*
D93*
X40000Y600000D02*
X750000Y600000D01*
X37378Y600000D02*
X40000D01*
X32180Y599316D02*
X37378Y600000D01*
X27115Y597958D02*
X32180Y599316D01*
X22271Y595952D02*
X27115Y597958D01*
X17730Y593330D02*
X22271Y595952D01*
X13570Y590138D02*
X17730Y593330D01*
X9862Y586431D02*
X13570Y590138D01*
X6670Y582271D02*
X9862Y586431D01*
X4048Y577729D02*
X6670Y582271D01*
X2042Y572885D02*
X4048Y577729D01*
X684Y567820D02*
X2042Y572885D01*
X0Y562622D02*
X684Y567820D01*
X0Y37378D02*
Y40000D01*
Y37378D02*
X685Y32180D01*
X2042Y27115D01*
X4048Y22271D01*
X6670Y17730D01*
X9862Y13570D01*
X13570Y9862D01*
X17730Y6670D01*
X22271Y4048D01*
X27115Y2042D01*
X32180Y685D01*
X37378Y0D01*
X1210000Y0D02*
X1212622Y0D01*
X1217821Y684D01*
X1222885Y2042D01*
X1227730Y4048D01*
X1232271Y6670D01*
X1236431Y9862D01*
X1240138Y13570D01*
X1243330Y17730D01*
X1245952Y22271D01*
X1247959Y27115D01*
X1249316Y32180D01*
X1250000Y37378D01*
Y40000D01*
Y560000D01*
X1250000Y562622D02*
X1250000Y560000D01*
X1249316Y567820D02*
X1250000Y562622D01*
X1247959Y572885D02*
X1249316Y567820D01*
X1245952Y577729D02*
X1247959Y572885D01*
X1243330Y582270D02*
X1245952Y577729D01*
X1240138Y586430D02*
X1243330Y582270D01*
X1236431Y590138D02*
X1240138Y586430D01*
X1232271Y593330D02*
X1236431Y590138D01*
X1227730Y595952D02*
X1232271Y593330D01*
X1222885Y597958D02*
X1227730Y595952D01*
X1217821Y599315D02*
X1222885Y597958D01*
X1212622Y600000D02*
X1217821Y599315D01*
X1210000Y600000D02*
X1212622Y600000D01*
X750000Y600000D02*
X1210000Y600000D01*
X825001Y230000D02*
Y370000D01*
X735001Y230000D02*
X825001D01*
X735001D02*
Y370000D01*
X825001D01*
X40000Y0D02*
X1210000Y0D01*
X37378Y0D02*
X40000Y0D01*
X0Y560000D02*
X0Y40000D01*
X0Y560000D02*
Y562622D01*
D94*
X197700Y568300D02*
D03*
Y260300D02*
D03*
X248500Y339700D02*
D03*
Y31700D02*
D03*
X223100Y568300D02*
D03*
Y260300D02*
D03*
X172300Y31700D02*
D03*
X223100D02*
D03*
X197700D02*
D03*
X146900D02*
D03*
X121500D02*
D03*
X96100D02*
D03*
X248500Y260300D02*
D03*
X96100D02*
D03*
X121500D02*
D03*
X146900D02*
D03*
X172300D02*
D03*
Y568300D02*
D03*
X146900D02*
D03*
X121500D02*
D03*
X96100D02*
D03*
X248500D02*
D03*
X96100Y339700D02*
D03*
X121500D02*
D03*
X146900D02*
D03*
X197700D02*
D03*
X223100D02*
D03*
X172300D02*
D03*
D95*
X553200Y544500D02*
D03*
X1078924Y388925D02*
D03*
X527800Y544500D02*
D03*
X1129724Y211125D02*
D03*
X578600Y544500D02*
D03*
X1104324Y388925D02*
D03*
X875724Y211125D02*
D03*
X850324D02*
D03*
X824924D02*
D03*
X774124D02*
D03*
X748724Y388925D02*
D03*
X774124D02*
D03*
X824924D02*
D03*
X850324D02*
D03*
X875724D02*
D03*
X901124D02*
D03*
X951924D02*
D03*
X977324D02*
D03*
X1002724D02*
D03*
X1028124D02*
D03*
X1129724D02*
D03*
X1155124D02*
D03*
X1205924D02*
D03*
X901124Y211125D02*
D03*
X951924D02*
D03*
X977324D02*
D03*
X1002724D02*
D03*
X1028124D02*
D03*
X1078924D02*
D03*
X1104324D02*
D03*
X1155124D02*
D03*
X1205924D02*
D03*
X1231324D02*
D03*
X748724D02*
D03*
X1231324Y388925D02*
D03*
D96*
X273900Y31700D02*
D03*
Y260300D02*
D03*
Y339700D02*
D03*
Y568300D02*
D03*
D97*
X799524Y211125D02*
D03*
Y388925D02*
D03*
X926524D02*
D03*
X1053524D02*
D03*
X1180524D02*
D03*
X926524Y211125D02*
D03*
X1053524D02*
D03*
X1180524D02*
D03*
X502400Y544500D02*
D03*
D98*
X950800Y135000D02*
D03*
X925400D02*
D03*
X900000D02*
D03*
D99*
X1003000Y88000D02*
D03*
Y74000D02*
D03*
D100*
X1219000Y87300D02*
D03*
Y112700D02*
D03*
D101*
X225000Y543000D02*
D03*
X1052250Y517000D02*
D03*
X1082500Y297000D02*
D03*
X1143000Y221000D02*
D03*
X1117000D02*
D03*
X1094000D02*
D03*
X1166000D02*
D03*
X1166000Y174000D02*
D03*
X1117000D02*
D03*
X838750Y510750D02*
D03*
X1042000Y324000D02*
D03*
X1063000Y324000D02*
D03*
X576500Y476500D02*
D03*
X595036Y435036D02*
D03*
X550036Y397036D02*
D03*
X983971Y525000D02*
D03*
X778750Y489750D02*
D03*
X528000Y516000D02*
D03*
X528000Y504000D02*
D03*
X650293Y441192D02*
D03*
X507711Y441000D02*
D03*
X1069000Y354000D02*
D03*
X1092000D02*
D03*
X1164000D02*
D03*
X1141000D02*
D03*
X1020000D02*
D03*
X1043000D02*
D03*
X1165000Y420000D02*
D03*
X1142000D02*
D03*
X1043000Y422000D02*
D03*
X1020000D02*
D03*
X1054000Y369000D02*
D03*
X1031000D02*
D03*
X1153000D02*
D03*
X1130000D02*
D03*
X697000Y14000D02*
D03*
X451000Y20000D02*
D03*
X571000D02*
D03*
X1094000Y174000D02*
D03*
X1143000D02*
D03*
X941000Y525000D02*
D03*
X1058250Y422000D02*
D03*
X796750Y486750D02*
D03*
X1093501Y496000D02*
D03*
X558000Y524000D02*
D03*
X1052250Y533000D02*
D03*
X1137000Y576250D02*
D03*
X1128750Y567250D02*
D03*
X621250Y313000D02*
D03*
X1040971Y503250D02*
D03*
X361750Y181000D02*
D03*
X443250Y330000D02*
D03*
Y344000D02*
D03*
Y358000D02*
D03*
X996971Y518000D02*
D03*
X1040971D02*
D03*
X1088000Y167000D02*
D03*
X1000000Y143000D02*
D03*
X848238Y119000D02*
D03*
X854238Y107000D02*
D03*
X377000Y203000D02*
D03*
X349000Y107000D02*
D03*
Y170000D02*
D03*
X406000Y119000D02*
D03*
X948000Y75000D02*
D03*
X937000Y46000D02*
D03*
X377000Y14000D02*
D03*
X342000Y27000D02*
D03*
X401000Y21000D02*
D03*
X641000Y20000D02*
D03*
X532000Y367000D02*
D03*
X412000Y177000D02*
D03*
X708000Y163000D02*
D03*
X694000Y177000D02*
D03*
X430475Y161707D02*
D03*
X629108Y553671D02*
D03*
X694000Y469000D02*
D03*
X722000D02*
D03*
X708000D02*
D03*
X694000Y194000D02*
D03*
Y407000D02*
D03*
X708000D02*
D03*
X722000D02*
D03*
X708000Y194000D02*
D03*
X391000Y168000D02*
D03*
X375000Y151000D02*
D03*
X253000Y282000D02*
D03*
Y311000D02*
D03*
Y297000D02*
D03*
X1077000Y64000D02*
D03*
X1100250Y63908D02*
D03*
X615000Y545000D02*
D03*
X482000Y445000D02*
D03*
X507000Y411000D02*
D03*
X533000Y392000D02*
D03*
X901000Y466000D02*
D03*
X825000Y459000D02*
D03*
X423000Y185000D02*
D03*
X632000Y321000D02*
D03*
X617000Y330000D02*
D03*
X774000Y451000D02*
D03*
X850000Y466000D02*
D03*
X876000Y443000D02*
D03*
X535500Y474250D02*
D03*
X604250Y367250D02*
D03*
D102*
X658000Y544500D02*
D03*
X423000Y306500D02*
D03*
X658000D02*
D03*
X423000Y544500D02*
D03*
M02*
