G04*
G04 #@! TF.GenerationSoftware,Altium Limited,Altium Designer,25.8.1 (18)*
G04*
G04 Layer_Color=8421504*
%FSLAX44Y44*%
%MOMM*%
G71*
G04*
G04 #@! TF.SameCoordinates,74B96BC4-F20B-47FB-8E9B-22239AF92EBC*
G04*
G04*
G04 #@! TF.FilePolarity,Positive*
G04*
G01*
G75*
%ADD19R,0.7000X0.2300*%
%ADD20R,0.7000X0.2300*%
%ADD21R,1.0000X1.0000*%
%ADD22R,0.7200X0.3000*%
%ADD23O,0.2000X0.8500*%
%ADD24R,0.3000X0.6000*%
G04:AMPARAMS|DCode=25|XSize=0.76mm|YSize=0.6604mm|CornerRadius=0.0825mm|HoleSize=0mm|Usage=FLASHONLY|Rotation=0.000|XOffset=0mm|YOffset=0mm|HoleType=Round|Shape=RoundedRectangle|*
%AMROUNDEDRECTD25*
21,1,0.7600,0.4953,0,0,0.0*
21,1,0.5949,0.6604,0,0,0.0*
1,1,0.1651,0.2975,-0.2477*
1,1,0.1651,-0.2975,-0.2477*
1,1,0.1651,-0.2975,0.2477*
1,1,0.1651,0.2975,0.2477*
%
%ADD25ROUNDEDRECTD25*%
G04:AMPARAMS|DCode=26|XSize=0.76mm|YSize=0.6604mm|CornerRadius=0.0825mm|HoleSize=0mm|Usage=FLASHONLY|Rotation=270.000|XOffset=0mm|YOffset=0mm|HoleType=Round|Shape=RoundedRectangle|*
%AMROUNDEDRECTD26*
21,1,0.7600,0.4953,0,0,270.0*
21,1,0.5949,0.6604,0,0,270.0*
1,1,0.1651,-0.2477,-0.2975*
1,1,0.1651,-0.2477,0.2975*
1,1,0.1651,0.2477,0.2975*
1,1,0.1651,0.2477,-0.2975*
%
%ADD26ROUNDEDRECTD26*%
%ADD27O,0.8500X0.2000*%
G04:AMPARAMS|DCode=28|XSize=0.76mm|YSize=0.6604mm|CornerRadius=0.0825mm|HoleSize=0mm|Usage=FLASHONLY|Rotation=225.000|XOffset=0mm|YOffset=0mm|HoleType=Round|Shape=RoundedRectangle|*
%AMROUNDEDRECTD28*
21,1,0.7600,0.4953,0,0,225.0*
21,1,0.5949,0.6604,0,0,225.0*
1,1,0.1651,-0.3854,-0.0352*
1,1,0.1651,0.0352,0.3854*
1,1,0.1651,0.3854,0.0352*
1,1,0.1651,-0.0352,-0.3854*
%
%ADD28ROUNDEDRECTD28*%
%ADD29O,0.2500X0.9500*%
%ADD30O,0.9500X0.2500*%
%ADD31R,1.6844X0.6268*%
G04:AMPARAMS|DCode=32|XSize=1.6844mm|YSize=0.6268mm|CornerRadius=0.3134mm|HoleSize=0mm|Usage=FLASHONLY|Rotation=0.000|XOffset=0mm|YOffset=0mm|HoleType=Round|Shape=RoundedRectangle|*
%AMROUNDEDRECTD32*
21,1,1.6844,0.0000,0,0,0.0*
21,1,1.0575,0.6268,0,0,0.0*
1,1,0.6268,0.5288,0.0000*
1,1,0.6268,-0.5288,0.0000*
1,1,0.6268,-0.5288,0.0000*
1,1,0.6268,0.5288,0.0000*
%
%ADD32ROUNDEDRECTD32*%
G04:AMPARAMS|DCode=33|XSize=1.5mm|YSize=1.5mm|CornerRadius=0.3mm|HoleSize=0mm|Usage=FLASHONLY|Rotation=270.000|XOffset=0mm|YOffset=0mm|HoleType=Round|Shape=RoundedRectangle|*
%AMROUNDEDRECTD33*
21,1,1.5000,0.9000,0,0,270.0*
21,1,0.9000,1.5000,0,0,270.0*
1,1,0.6000,-0.4500,-0.4500*
1,1,0.6000,-0.4500,0.4500*
1,1,0.6000,0.4500,0.4500*
1,1,0.6000,0.4500,-0.4500*
%
%ADD33ROUNDEDRECTD33*%
%ADD34O,1.8000X1.1000*%
%ADD35O,1.4500X1.0500*%
%ADD36R,1.5748X1.5748*%
%ADD37C,1.5748*%
%ADD38R,2.1000X1.4000*%
%ADD39R,1.6000X0.5000*%
%ADD40R,2.6500X2.6500*%
%ADD41R,0.6000X1.1000*%
%ADD42R,0.8000X0.9000*%
%ADD43R,1.2000X1.2000*%
%ADD44R,1.5000X1.6000*%
%ADD45R,0.8000X0.8000*%
G36*
X1239301Y412900D02*
X1239324Y388926D01*
X1239324Y388401D01*
X1239187Y387362D01*
X1238915Y386349D01*
X1238514Y385380D01*
X1237990Y384471D01*
X1237352Y383639D01*
X1236610Y382898D01*
X1235778Y382260D01*
X1234870Y381735D01*
X1233901Y381334D01*
X1232888Y381063D01*
X1231848Y380926D01*
X1231323Y380926D01*
X1230799Y380926D01*
X1229760Y381063D01*
X1228747Y381334D01*
X1227778Y381736D01*
X1226870Y382260D01*
X1226038Y382898D01*
X1225296Y383640D01*
X1224658Y384472D01*
X1224133Y385380D01*
X1223732Y386349D01*
X1223461Y387362D01*
X1223324Y388401D01*
X1223324Y388926D01*
X1223324Y388926D01*
X1223300Y412900D01*
X1239301Y412900D01*
D02*
G37*
G36*
X1213901D02*
X1213924Y388926D01*
X1213924Y388401D01*
X1213787Y387362D01*
X1213515Y386349D01*
X1213114Y385380D01*
X1212590Y384471D01*
X1211952Y383639D01*
X1211210Y382898D01*
X1210378Y382260D01*
X1209470Y381735D01*
X1208501Y381334D01*
X1207488Y381063D01*
X1206448Y380926D01*
X1205923Y380926D01*
X1205399Y380926D01*
X1204360Y381063D01*
X1203347Y381334D01*
X1202378Y381736D01*
X1201470Y382260D01*
X1200638Y382898D01*
X1199896Y383640D01*
X1199258Y384472D01*
X1198733Y385380D01*
X1198332Y386349D01*
X1198061Y387362D01*
X1197924Y388401D01*
X1197924Y388926D01*
X1197924Y388926D01*
X1197900Y412900D01*
X1213901Y412900D01*
D02*
G37*
G36*
X1188501D02*
X1188524Y388926D01*
X1188524Y388401D01*
X1188387Y387362D01*
X1188115Y386349D01*
X1187714Y385380D01*
X1187190Y384471D01*
X1186552Y383639D01*
X1185810Y382898D01*
X1184978Y382260D01*
X1184070Y381735D01*
X1183101Y381334D01*
X1182088Y381063D01*
X1181048Y380926D01*
X1180524Y380926D01*
X1179999Y380926D01*
X1178960Y381063D01*
X1177947Y381334D01*
X1176978Y381736D01*
X1176070Y382260D01*
X1175238Y382898D01*
X1174496Y383640D01*
X1173858Y384472D01*
X1173333Y385380D01*
X1172932Y386349D01*
X1172661Y387362D01*
X1172524Y388401D01*
X1172524Y388926D01*
X1172524Y388926D01*
X1172500Y412900D01*
X1188501Y412900D01*
D02*
G37*
G36*
X1163101D02*
X1163124Y388926D01*
X1163124Y388401D01*
X1162987Y387362D01*
X1162716Y386349D01*
X1162314Y385380D01*
X1161790Y384471D01*
X1161152Y383639D01*
X1160410Y382898D01*
X1159578Y382260D01*
X1158670Y381735D01*
X1157701Y381334D01*
X1156688Y381063D01*
X1155648Y380926D01*
X1155124Y380926D01*
X1154599Y380926D01*
X1153559Y381063D01*
X1152547Y381334D01*
X1151578Y381736D01*
X1150670Y382260D01*
X1149838Y382898D01*
X1149096Y383640D01*
X1148458Y384472D01*
X1147933Y385380D01*
X1147532Y386349D01*
X1147261Y387362D01*
X1147124Y388401D01*
X1147124Y388926D01*
X1147124Y388926D01*
X1147100Y412900D01*
X1163101Y412900D01*
D02*
G37*
G36*
X1137701D02*
X1137724Y388926D01*
X1137724Y388401D01*
X1137587Y387362D01*
X1137316Y386349D01*
X1136914Y385380D01*
X1136390Y384471D01*
X1135751Y383639D01*
X1135010Y382898D01*
X1134178Y382260D01*
X1133270Y381735D01*
X1132301Y381334D01*
X1131288Y381063D01*
X1130248Y380926D01*
X1129724Y380926D01*
X1129199Y380926D01*
X1128159Y381063D01*
X1127147Y381334D01*
X1126178Y381736D01*
X1125270Y382260D01*
X1124438Y382898D01*
X1123696Y383640D01*
X1123058Y384472D01*
X1122533Y385380D01*
X1122132Y386349D01*
X1121861Y387362D01*
X1121724Y388401D01*
X1121724Y388926D01*
X1121724Y388926D01*
X1121700Y412900D01*
X1137701Y412900D01*
D02*
G37*
G36*
X1112300D02*
X1112324Y388926D01*
X1112324Y388401D01*
X1112187Y387362D01*
X1111916Y386349D01*
X1111514Y385380D01*
X1110990Y384471D01*
X1110351Y383639D01*
X1109610Y382898D01*
X1108778Y382260D01*
X1107870Y381735D01*
X1106901Y381334D01*
X1105888Y381063D01*
X1104848Y380926D01*
X1104324Y380926D01*
X1103799Y380926D01*
X1102759Y381063D01*
X1101747Y381334D01*
X1100778Y381736D01*
X1099870Y382260D01*
X1099038Y382898D01*
X1098296Y383640D01*
X1097658Y384472D01*
X1097133Y385380D01*
X1096732Y386349D01*
X1096461Y387362D01*
X1096324Y388401D01*
X1096324Y388926D01*
X1096324Y388926D01*
X1096300Y412900D01*
X1112300Y412900D01*
D02*
G37*
G36*
X1086900D02*
X1086924Y388926D01*
X1086924Y388401D01*
X1086787Y387362D01*
X1086516Y386349D01*
X1086114Y385380D01*
X1085590Y384471D01*
X1084951Y383639D01*
X1084210Y382898D01*
X1083378Y382260D01*
X1082470Y381735D01*
X1081501Y381334D01*
X1080488Y381063D01*
X1079448Y380926D01*
X1078923Y380926D01*
X1078399Y380926D01*
X1077359Y381063D01*
X1076347Y381334D01*
X1075378Y381736D01*
X1074470Y382260D01*
X1073638Y382898D01*
X1072896Y383640D01*
X1072258Y384472D01*
X1071733Y385380D01*
X1071332Y386349D01*
X1071061Y387362D01*
X1070924Y388401D01*
X1070924Y388926D01*
X1070924Y388926D01*
X1070900Y412900D01*
X1086900Y412900D01*
D02*
G37*
G36*
X1061500D02*
X1061524Y388926D01*
X1061524Y388401D01*
X1061387Y387362D01*
X1061115Y386349D01*
X1060714Y385380D01*
X1060190Y384471D01*
X1059551Y383639D01*
X1058810Y382898D01*
X1057978Y382260D01*
X1057070Y381735D01*
X1056101Y381334D01*
X1055088Y381063D01*
X1054048Y380926D01*
X1053523Y380926D01*
X1052999Y380926D01*
X1051960Y381063D01*
X1050947Y381334D01*
X1049978Y381736D01*
X1049070Y382260D01*
X1048238Y382898D01*
X1047496Y383640D01*
X1046858Y384472D01*
X1046333Y385380D01*
X1045932Y386349D01*
X1045661Y387362D01*
X1045524Y388401D01*
X1045524Y388926D01*
X1045524Y388926D01*
X1045500Y412900D01*
X1061500Y412900D01*
D02*
G37*
G36*
X1036100D02*
X1036124Y388926D01*
X1036124Y388401D01*
X1035987Y387362D01*
X1035715Y386349D01*
X1035314Y385380D01*
X1034790Y384471D01*
X1034152Y383639D01*
X1033410Y382898D01*
X1032578Y382260D01*
X1031670Y381735D01*
X1030701Y381334D01*
X1029688Y381063D01*
X1028648Y380926D01*
X1028123Y380926D01*
X1027599Y380926D01*
X1026560Y381063D01*
X1025547Y381334D01*
X1024578Y381736D01*
X1023670Y382260D01*
X1022838Y382898D01*
X1022096Y383640D01*
X1021458Y384472D01*
X1020933Y385380D01*
X1020532Y386349D01*
X1020261Y387362D01*
X1020124Y388401D01*
X1020124Y388926D01*
X1020124Y388926D01*
X1020100Y412900D01*
X1036100Y412900D01*
D02*
G37*
G36*
X1010701D02*
X1010724Y388926D01*
X1010724Y388401D01*
X1010587Y387362D01*
X1010315Y386349D01*
X1009914Y385380D01*
X1009390Y384471D01*
X1008752Y383639D01*
X1008010Y382898D01*
X1007178Y382260D01*
X1006270Y381735D01*
X1005301Y381334D01*
X1004288Y381063D01*
X1003248Y380926D01*
X1002723Y380926D01*
X1002199Y380926D01*
X1001160Y381063D01*
X1000147Y381334D01*
X999178Y381736D01*
X998270Y382260D01*
X997438Y382898D01*
X996696Y383640D01*
X996058Y384472D01*
X995533Y385380D01*
X995132Y386349D01*
X994861Y387362D01*
X994724Y388401D01*
X994724Y388926D01*
X994724Y388926D01*
X994700Y412900D01*
X1010701Y412900D01*
D02*
G37*
G36*
X985301D02*
X985324Y388926D01*
X985324Y388401D01*
X985187Y387362D01*
X984915Y386349D01*
X984514Y385380D01*
X983990Y384471D01*
X983352Y383639D01*
X982610Y382898D01*
X981778Y382260D01*
X980870Y381735D01*
X979901Y381334D01*
X978888Y381063D01*
X977848Y380926D01*
X977324Y380926D01*
X976799Y380926D01*
X975760Y381063D01*
X974747Y381334D01*
X973778Y381736D01*
X972870Y382260D01*
X972038Y382898D01*
X971296Y383640D01*
X970658Y384472D01*
X970133Y385380D01*
X969732Y386349D01*
X969461Y387362D01*
X969324Y388401D01*
X969324Y388926D01*
X969324Y388926D01*
X969300Y412900D01*
X985301Y412900D01*
D02*
G37*
G36*
X959901D02*
X959924Y388926D01*
X959924Y388401D01*
X959787Y387362D01*
X959516Y386349D01*
X959114Y385380D01*
X958590Y384471D01*
X957952Y383639D01*
X957210Y382898D01*
X956378Y382260D01*
X955470Y381735D01*
X954501Y381334D01*
X953488Y381063D01*
X952448Y380926D01*
X951924Y380926D01*
X951399Y380926D01*
X950359Y381063D01*
X949347Y381334D01*
X948378Y381736D01*
X947470Y382260D01*
X946638Y382898D01*
X945896Y383640D01*
X945258Y384472D01*
X944733Y385380D01*
X944332Y386349D01*
X944061Y387362D01*
X943924Y388401D01*
X943924Y388926D01*
X943924Y388926D01*
X943900Y412900D01*
X959901Y412900D01*
D02*
G37*
G36*
X934501D02*
X934524Y388926D01*
X934524Y388401D01*
X934387Y387362D01*
X934116Y386349D01*
X933714Y385380D01*
X933190Y384471D01*
X932551Y383639D01*
X931810Y382898D01*
X930978Y382260D01*
X930070Y381735D01*
X929101Y381334D01*
X928088Y381063D01*
X927048Y380926D01*
X926524Y380926D01*
X925999Y380926D01*
X924959Y381063D01*
X923947Y381334D01*
X922978Y381736D01*
X922070Y382260D01*
X921238Y382898D01*
X920496Y383640D01*
X919858Y384472D01*
X919333Y385380D01*
X918932Y386349D01*
X918661Y387362D01*
X918524Y388401D01*
X918524Y388926D01*
X918524Y388926D01*
X918500Y412900D01*
X934501Y412900D01*
D02*
G37*
G36*
X909100D02*
X909124Y388926D01*
X909124Y388401D01*
X908987Y387362D01*
X908716Y386349D01*
X908314Y385380D01*
X907790Y384471D01*
X907151Y383639D01*
X906410Y382898D01*
X905578Y382260D01*
X904670Y381735D01*
X903701Y381334D01*
X902688Y381063D01*
X901648Y380926D01*
X901124Y380926D01*
X900599Y380926D01*
X899559Y381063D01*
X898547Y381334D01*
X897578Y381736D01*
X896670Y382260D01*
X895838Y382898D01*
X895096Y383640D01*
X894458Y384472D01*
X893933Y385380D01*
X893532Y386349D01*
X893261Y387362D01*
X893124Y388401D01*
X893124Y388926D01*
X893124Y388926D01*
X893100Y412900D01*
X909100Y412900D01*
D02*
G37*
G36*
X883700D02*
X883724Y388926D01*
X883724Y388401D01*
X883587Y387362D01*
X883316Y386349D01*
X882914Y385380D01*
X882390Y384471D01*
X881751Y383639D01*
X881010Y382898D01*
X880178Y382260D01*
X879270Y381735D01*
X878301Y381334D01*
X877288Y381063D01*
X876248Y380926D01*
X875723Y380926D01*
X875199Y380926D01*
X874159Y381063D01*
X873147Y381334D01*
X872178Y381736D01*
X871270Y382260D01*
X870438Y382898D01*
X869696Y383640D01*
X869058Y384472D01*
X868533Y385380D01*
X868132Y386349D01*
X867861Y387362D01*
X867724Y388401D01*
X867724Y388926D01*
X867724Y388926D01*
X867700Y412900D01*
X883700Y412900D01*
D02*
G37*
G36*
X858300D02*
X858324Y388926D01*
X858324Y388401D01*
X858187Y387362D01*
X857915Y386349D01*
X857514Y385380D01*
X856990Y384471D01*
X856351Y383639D01*
X855610Y382898D01*
X854778Y382260D01*
X853870Y381735D01*
X852901Y381334D01*
X851888Y381063D01*
X850848Y380926D01*
X850323Y380926D01*
X849799Y380926D01*
X848760Y381063D01*
X847747Y381334D01*
X846778Y381736D01*
X845870Y382260D01*
X845038Y382898D01*
X844296Y383640D01*
X843658Y384472D01*
X843133Y385380D01*
X842732Y386349D01*
X842461Y387362D01*
X842324Y388401D01*
X842324Y388926D01*
X842324Y388926D01*
X842300Y412900D01*
X858300Y412900D01*
D02*
G37*
G36*
X832900D02*
X832924Y388926D01*
X832924Y388401D01*
X832787Y387362D01*
X832515Y386349D01*
X832114Y385380D01*
X831590Y384471D01*
X830952Y383639D01*
X830210Y382898D01*
X829378Y382260D01*
X828470Y381735D01*
X827501Y381334D01*
X826488Y381063D01*
X825448Y380926D01*
X824923Y380926D01*
X824399Y380926D01*
X823360Y381063D01*
X822347Y381334D01*
X821378Y381736D01*
X820470Y382260D01*
X819638Y382898D01*
X818896Y383640D01*
X818258Y384472D01*
X817733Y385380D01*
X817332Y386349D01*
X817061Y387362D01*
X816924Y388401D01*
X816924Y388926D01*
X816924Y388926D01*
X816900Y412900D01*
X832900Y412900D01*
D02*
G37*
G36*
X807501D02*
X807524Y388926D01*
X807524Y388401D01*
X807387Y387362D01*
X807115Y386349D01*
X806714Y385380D01*
X806190Y384471D01*
X805552Y383639D01*
X804810Y382898D01*
X803978Y382260D01*
X803070Y381735D01*
X802101Y381334D01*
X801088Y381063D01*
X800048Y380926D01*
X799523Y380926D01*
X798999Y380926D01*
X797960Y381063D01*
X796947Y381334D01*
X795978Y381736D01*
X795070Y382260D01*
X794238Y382898D01*
X793496Y383640D01*
X792858Y384472D01*
X792333Y385380D01*
X791932Y386349D01*
X791661Y387362D01*
X791524Y388401D01*
X791524Y388926D01*
X791524Y388926D01*
X791500Y412900D01*
X807501Y412900D01*
D02*
G37*
G36*
X782101D02*
X782124Y388926D01*
X782124Y388401D01*
X781987Y387362D01*
X781715Y386349D01*
X781314Y385380D01*
X780790Y384471D01*
X780152Y383639D01*
X779410Y382898D01*
X778578Y382260D01*
X777670Y381735D01*
X776701Y381334D01*
X775688Y381063D01*
X774648Y380926D01*
X774124Y380926D01*
X773599Y380926D01*
X772560Y381063D01*
X771547Y381334D01*
X770578Y381736D01*
X769670Y382260D01*
X768838Y382898D01*
X768096Y383640D01*
X767458Y384472D01*
X766933Y385380D01*
X766532Y386349D01*
X766261Y387362D01*
X766124Y388401D01*
X766124Y388926D01*
X766124Y388926D01*
X766100Y412900D01*
X782101Y412900D01*
D02*
G37*
G36*
X756701D02*
X756724Y388926D01*
X756724Y388401D01*
X756587Y387362D01*
X756316Y386349D01*
X755914Y385380D01*
X755390Y384471D01*
X754752Y383639D01*
X754010Y382898D01*
X753178Y382260D01*
X752270Y381735D01*
X751301Y381334D01*
X750288Y381063D01*
X749248Y380926D01*
X748724Y380926D01*
X748199Y380926D01*
X747160Y381063D01*
X746147Y381334D01*
X745178Y381736D01*
X744270Y382260D01*
X743438Y382898D01*
X742696Y383640D01*
X742058Y384472D01*
X741533Y385380D01*
X741132Y386349D01*
X740861Y387362D01*
X740724Y388401D01*
X740724Y388926D01*
X740724Y388926D01*
X740700Y412900D01*
X756701Y412900D01*
D02*
G37*
G36*
X1231324Y219124D02*
X1231849Y219124D01*
X1232888Y218988D01*
X1233901Y218716D01*
X1234870Y218315D01*
X1235778Y217791D01*
X1236610Y217152D01*
X1237352Y216411D01*
X1237990Y215579D01*
X1238514Y214671D01*
X1238916Y213702D01*
X1239187Y212689D01*
X1239324Y211649D01*
X1239324Y211125D01*
X1239324Y211125D01*
X1239348Y187150D01*
X1223347Y187151D01*
X1223324Y211125D01*
X1223324Y211649D01*
X1223461Y212689D01*
X1223732Y213702D01*
X1224134Y214671D01*
X1224658Y215579D01*
X1225296Y216411D01*
X1226038Y217153D01*
X1226870Y217791D01*
X1227778Y218315D01*
X1228747Y218717D01*
X1229760Y218988D01*
X1230800Y219124D01*
X1231324Y219124D01*
D02*
G37*
G36*
X1205924D02*
X1206449Y219124D01*
X1207488Y218988D01*
X1208501Y218716D01*
X1209470Y218315D01*
X1210378Y217791D01*
X1211210Y217152D01*
X1211952Y216411D01*
X1212590Y215579D01*
X1213114Y214671D01*
X1213516Y213702D01*
X1213787Y212689D01*
X1213924Y211649D01*
X1213924Y211125D01*
X1213924Y211125D01*
X1213948Y187150D01*
X1197947Y187151D01*
X1197924Y211125D01*
X1197924Y211649D01*
X1198061Y212689D01*
X1198332Y213702D01*
X1198734Y214671D01*
X1199258Y215579D01*
X1199896Y216411D01*
X1200638Y217153D01*
X1201470Y217791D01*
X1202378Y218315D01*
X1203347Y218717D01*
X1204360Y218988D01*
X1205400Y219124D01*
X1205924Y219124D01*
D02*
G37*
G36*
X1180524D02*
X1181049Y219124D01*
X1182088Y218988D01*
X1183101Y218716D01*
X1184070Y218315D01*
X1184978Y217791D01*
X1185810Y217152D01*
X1186552Y216411D01*
X1187190Y215579D01*
X1187714Y214671D01*
X1188116Y213702D01*
X1188387Y212689D01*
X1188524Y211649D01*
X1188524Y211125D01*
X1188524Y211125D01*
X1188548Y187150D01*
X1172547Y187151D01*
X1172524Y211125D01*
X1172524Y211649D01*
X1172661Y212689D01*
X1172932Y213702D01*
X1173334Y214671D01*
X1173858Y215579D01*
X1174496Y216411D01*
X1175238Y217153D01*
X1176070Y217791D01*
X1176978Y218315D01*
X1177947Y218717D01*
X1178960Y218988D01*
X1180000Y219124D01*
X1180524Y219124D01*
D02*
G37*
G36*
X1155124D02*
X1155649Y219124D01*
X1156688Y218988D01*
X1157701Y218716D01*
X1158670Y218315D01*
X1159578Y217791D01*
X1160410Y217152D01*
X1161152Y216411D01*
X1161790Y215579D01*
X1162315Y214671D01*
X1162716Y213702D01*
X1162987Y212689D01*
X1163124Y211649D01*
X1163124Y211125D01*
X1163124Y211125D01*
X1163148Y187150D01*
X1147147Y187151D01*
X1147124Y211125D01*
X1147124Y211649D01*
X1147261Y212689D01*
X1147532Y213702D01*
X1147934Y214671D01*
X1148458Y215579D01*
X1149096Y216411D01*
X1149838Y217153D01*
X1150670Y217791D01*
X1151578Y218315D01*
X1152547Y218717D01*
X1153560Y218988D01*
X1154600Y219124D01*
X1155124Y219124D01*
D02*
G37*
G36*
X1129724D02*
X1130249Y219124D01*
X1131288Y218988D01*
X1132301Y218716D01*
X1133270Y218315D01*
X1134178Y217791D01*
X1135010Y217152D01*
X1135752Y216411D01*
X1136390Y215579D01*
X1136915Y214671D01*
X1137316Y213702D01*
X1137587Y212689D01*
X1137724Y211649D01*
X1137724Y211125D01*
X1137724Y211125D01*
X1137747Y187150D01*
X1121747Y187151D01*
X1121724Y211125D01*
X1121724Y211649D01*
X1121861Y212689D01*
X1122132Y213702D01*
X1122534Y214671D01*
X1123058Y215579D01*
X1123696Y216411D01*
X1124438Y217153D01*
X1125270Y217791D01*
X1126178Y218315D01*
X1127147Y218717D01*
X1128160Y218988D01*
X1129200Y219124D01*
X1129724Y219124D01*
D02*
G37*
G36*
X1104324D02*
X1104849Y219124D01*
X1105888Y218988D01*
X1106901Y218716D01*
X1107870Y218315D01*
X1108778Y217791D01*
X1109610Y217152D01*
X1110352Y216411D01*
X1110990Y215579D01*
X1111515Y214671D01*
X1111916Y213702D01*
X1112187Y212689D01*
X1112324Y211649D01*
X1112324Y211125D01*
X1112324Y211125D01*
X1112347Y187150D01*
X1096347Y187151D01*
X1096324Y211125D01*
X1096324Y211649D01*
X1096461Y212689D01*
X1096732Y213702D01*
X1097134Y214671D01*
X1097658Y215579D01*
X1098296Y216411D01*
X1099038Y217153D01*
X1099870Y217791D01*
X1100778Y218315D01*
X1101747Y218717D01*
X1102760Y218988D01*
X1103800Y219124D01*
X1104324Y219124D01*
D02*
G37*
G36*
X1078924D02*
X1079449Y219124D01*
X1080488Y218988D01*
X1081501Y218716D01*
X1082470Y218315D01*
X1083378Y217791D01*
X1084210Y217152D01*
X1084952Y216411D01*
X1085590Y215579D01*
X1086115Y214671D01*
X1086516Y213702D01*
X1086787Y212689D01*
X1086924Y211649D01*
X1086924Y211125D01*
X1086924Y211125D01*
X1086947Y187150D01*
X1070947Y187151D01*
X1070924Y211125D01*
X1070924Y211649D01*
X1071061Y212689D01*
X1071332Y213702D01*
X1071734Y214671D01*
X1072258Y215579D01*
X1072896Y216411D01*
X1073638Y217153D01*
X1074470Y217791D01*
X1075378Y218315D01*
X1076347Y218717D01*
X1077360Y218988D01*
X1078400Y219124D01*
X1078924Y219124D01*
D02*
G37*
G36*
X1053524D02*
X1054049Y219124D01*
X1055088Y218988D01*
X1056101Y218716D01*
X1057070Y218315D01*
X1057978Y217791D01*
X1058810Y217152D01*
X1059552Y216411D01*
X1060190Y215579D01*
X1060714Y214671D01*
X1061116Y213702D01*
X1061387Y212689D01*
X1061524Y211649D01*
X1061524Y211125D01*
X1061524Y211125D01*
X1061547Y187150D01*
X1045547Y187151D01*
X1045524Y211125D01*
X1045524Y211649D01*
X1045661Y212689D01*
X1045932Y213702D01*
X1046334Y214671D01*
X1046858Y215579D01*
X1047496Y216411D01*
X1048238Y217153D01*
X1049070Y217791D01*
X1049978Y218315D01*
X1050947Y218717D01*
X1051960Y218988D01*
X1053000Y219124D01*
X1053524Y219124D01*
D02*
G37*
G36*
X1028124D02*
X1028649Y219124D01*
X1029688Y218988D01*
X1030701Y218716D01*
X1031670Y218315D01*
X1032578Y217791D01*
X1033410Y217152D01*
X1034152Y216411D01*
X1034790Y215579D01*
X1035314Y214671D01*
X1035716Y213702D01*
X1035987Y212689D01*
X1036124Y211649D01*
X1036124Y211125D01*
X1036124Y211125D01*
X1036148Y187150D01*
X1020147Y187151D01*
X1020124Y211125D01*
X1020124Y211649D01*
X1020261Y212689D01*
X1020532Y213702D01*
X1020934Y214671D01*
X1021458Y215579D01*
X1022096Y216411D01*
X1022838Y217153D01*
X1023670Y217791D01*
X1024578Y218315D01*
X1025547Y218717D01*
X1026560Y218988D01*
X1027600Y219124D01*
X1028124Y219124D01*
D02*
G37*
G36*
X1002724D02*
X1003249Y219124D01*
X1004288Y218988D01*
X1005301Y218716D01*
X1006270Y218315D01*
X1007178Y217791D01*
X1008010Y217152D01*
X1008752Y216411D01*
X1009390Y215579D01*
X1009914Y214671D01*
X1010316Y213702D01*
X1010587Y212689D01*
X1010724Y211649D01*
X1010724Y211125D01*
X1010724Y211125D01*
X1010748Y187150D01*
X994747Y187151D01*
X994724Y211125D01*
X994724Y211649D01*
X994861Y212689D01*
X995132Y213702D01*
X995534Y214671D01*
X996058Y215579D01*
X996696Y216411D01*
X997438Y217153D01*
X998270Y217791D01*
X999178Y218315D01*
X1000147Y218717D01*
X1001160Y218988D01*
X1002200Y219124D01*
X1002724Y219124D01*
D02*
G37*
G36*
X977324D02*
X977849Y219124D01*
X978888Y218988D01*
X979901Y218716D01*
X980870Y218315D01*
X981778Y217791D01*
X982610Y217152D01*
X983352Y216411D01*
X983990Y215579D01*
X984514Y214671D01*
X984916Y213702D01*
X985187Y212689D01*
X985324Y211649D01*
X985324Y211125D01*
X985324Y211125D01*
X985348Y187150D01*
X969347Y187151D01*
X969324Y211125D01*
X969324Y211649D01*
X969461Y212689D01*
X969732Y213702D01*
X970134Y214671D01*
X970658Y215579D01*
X971296Y216411D01*
X972038Y217153D01*
X972870Y217791D01*
X973778Y218315D01*
X974747Y218717D01*
X975760Y218988D01*
X976800Y219124D01*
X977324Y219124D01*
D02*
G37*
G36*
X951924D02*
X952449Y219124D01*
X953488Y218988D01*
X954501Y218716D01*
X955470Y218315D01*
X956378Y217791D01*
X957210Y217152D01*
X957952Y216411D01*
X958590Y215579D01*
X959115Y214671D01*
X959516Y213702D01*
X959787Y212689D01*
X959924Y211649D01*
X959924Y211125D01*
X959924Y211125D01*
X959948Y187150D01*
X943947Y187151D01*
X943924Y211125D01*
X943924Y211649D01*
X944061Y212689D01*
X944332Y213702D01*
X944734Y214671D01*
X945258Y215579D01*
X945896Y216411D01*
X946638Y217153D01*
X947470Y217791D01*
X948378Y218315D01*
X949347Y218717D01*
X950360Y218988D01*
X951400Y219124D01*
X951924Y219124D01*
D02*
G37*
G36*
X926524D02*
X927049Y219124D01*
X928088Y218988D01*
X929101Y218716D01*
X930070Y218315D01*
X930978Y217791D01*
X931810Y217152D01*
X932552Y216411D01*
X933190Y215579D01*
X933715Y214671D01*
X934116Y213702D01*
X934387Y212689D01*
X934524Y211649D01*
X934524Y211125D01*
X934524Y211125D01*
X934548Y187150D01*
X918547Y187151D01*
X918524Y211125D01*
X918524Y211649D01*
X918661Y212689D01*
X918932Y213702D01*
X919334Y214671D01*
X919858Y215579D01*
X920496Y216411D01*
X921238Y217153D01*
X922070Y217791D01*
X922978Y218315D01*
X923947Y218717D01*
X924960Y218988D01*
X926000Y219124D01*
X926524Y219124D01*
D02*
G37*
G36*
X901124D02*
X901649Y219124D01*
X902688Y218988D01*
X903701Y218716D01*
X904670Y218315D01*
X905578Y217791D01*
X906410Y217152D01*
X907152Y216411D01*
X907790Y215579D01*
X908315Y214671D01*
X908716Y213702D01*
X908987Y212689D01*
X909124Y211649D01*
X909124Y211125D01*
X909124Y211125D01*
X909147Y187150D01*
X893147Y187151D01*
X893124Y211125D01*
X893124Y211649D01*
X893261Y212689D01*
X893532Y213702D01*
X893934Y214671D01*
X894458Y215579D01*
X895096Y216411D01*
X895838Y217153D01*
X896670Y217791D01*
X897578Y218315D01*
X898547Y218717D01*
X899560Y218988D01*
X900600Y219124D01*
X901124Y219124D01*
D02*
G37*
G36*
X875724D02*
X876249Y219124D01*
X877288Y218988D01*
X878301Y218716D01*
X879270Y218315D01*
X880178Y217791D01*
X881010Y217152D01*
X881752Y216411D01*
X882390Y215579D01*
X882915Y214671D01*
X883316Y213702D01*
X883587Y212689D01*
X883724Y211649D01*
X883724Y211125D01*
X883724Y211125D01*
X883747Y187150D01*
X867747Y187151D01*
X867724Y211125D01*
X867724Y211649D01*
X867861Y212689D01*
X868132Y213702D01*
X868534Y214671D01*
X869058Y215579D01*
X869696Y216411D01*
X870438Y217153D01*
X871270Y217791D01*
X872178Y218315D01*
X873147Y218717D01*
X874160Y218988D01*
X875200Y219124D01*
X875724Y219124D01*
D02*
G37*
G36*
X850324D02*
X850849Y219124D01*
X851888Y218988D01*
X852901Y218716D01*
X853870Y218315D01*
X854778Y217791D01*
X855610Y217152D01*
X856352Y216411D01*
X856990Y215579D01*
X857514Y214671D01*
X857916Y213702D01*
X858187Y212689D01*
X858324Y211649D01*
X858324Y211125D01*
X858324Y211125D01*
X858347Y187150D01*
X842347Y187151D01*
X842324Y211125D01*
X842324Y211649D01*
X842461Y212689D01*
X842732Y213702D01*
X843134Y214671D01*
X843658Y215579D01*
X844296Y216411D01*
X845038Y217153D01*
X845870Y217791D01*
X846778Y218315D01*
X847747Y218717D01*
X848760Y218988D01*
X849800Y219124D01*
X850324Y219124D01*
D02*
G37*
G36*
X824924D02*
X825449Y219124D01*
X826488Y218988D01*
X827501Y218716D01*
X828470Y218315D01*
X829378Y217791D01*
X830210Y217152D01*
X830952Y216411D01*
X831590Y215579D01*
X832114Y214671D01*
X832516Y213702D01*
X832787Y212689D01*
X832924Y211649D01*
X832924Y211125D01*
X832924Y211125D01*
X832947Y187150D01*
X816947Y187151D01*
X816924Y211125D01*
X816924Y211649D01*
X817061Y212689D01*
X817332Y213702D01*
X817734Y214671D01*
X818258Y215579D01*
X818896Y216411D01*
X819638Y217153D01*
X820470Y217791D01*
X821378Y218315D01*
X822347Y218717D01*
X823360Y218988D01*
X824400Y219124D01*
X824924Y219124D01*
D02*
G37*
G36*
X799524D02*
X800049Y219124D01*
X801088Y218988D01*
X802101Y218716D01*
X803070Y218315D01*
X803978Y217791D01*
X804810Y217152D01*
X805552Y216411D01*
X806190Y215579D01*
X806714Y214671D01*
X807116Y213702D01*
X807387Y212689D01*
X807524Y211649D01*
X807524Y211125D01*
X807524Y211125D01*
X807548Y187150D01*
X791547Y187151D01*
X791524Y211125D01*
X791524Y211649D01*
X791661Y212689D01*
X791932Y213702D01*
X792334Y214671D01*
X792858Y215579D01*
X793496Y216411D01*
X794238Y217153D01*
X795070Y217791D01*
X795978Y218315D01*
X796947Y218717D01*
X797960Y218988D01*
X799000Y219124D01*
X799524Y219124D01*
D02*
G37*
G36*
X774124D02*
X774649Y219124D01*
X775688Y218988D01*
X776701Y218716D01*
X777670Y218315D01*
X778578Y217791D01*
X779410Y217152D01*
X780152Y216411D01*
X780790Y215579D01*
X781314Y214671D01*
X781716Y213702D01*
X781987Y212689D01*
X782124Y211649D01*
X782124Y211125D01*
X782124Y211125D01*
X782148Y187150D01*
X766147Y187151D01*
X766124Y211125D01*
X766124Y211649D01*
X766261Y212689D01*
X766532Y213702D01*
X766934Y214671D01*
X767458Y215579D01*
X768096Y216411D01*
X768838Y217153D01*
X769670Y217791D01*
X770578Y218315D01*
X771547Y218717D01*
X772560Y218988D01*
X773600Y219124D01*
X774124Y219124D01*
D02*
G37*
G36*
X748724D02*
X749249Y219124D01*
X750288Y218988D01*
X751301Y218716D01*
X752270Y218315D01*
X753178Y217791D01*
X754010Y217152D01*
X754752Y216411D01*
X755390Y215579D01*
X755915Y214671D01*
X756316Y213702D01*
X756587Y212689D01*
X756724Y211649D01*
X756724Y211125D01*
X756724Y211125D01*
X756748Y187150D01*
X740747Y187151D01*
X740724Y211125D01*
X740724Y211649D01*
X740861Y212689D01*
X741132Y213702D01*
X741534Y214671D01*
X742058Y215579D01*
X742696Y216411D01*
X743438Y217153D01*
X744270Y217791D01*
X745178Y218315D01*
X746147Y218717D01*
X747160Y218988D01*
X748200Y219124D01*
X748724Y219124D01*
D02*
G37*
D19*
X1111749Y69000D02*
D03*
X1111749Y79000D02*
D03*
X1100250Y69000D02*
D03*
X1100251Y79000D02*
D03*
D20*
X1111747Y74000D02*
D03*
X1100250Y74004D02*
D03*
D21*
X900000Y508000D02*
D03*
X920000Y528000D02*
D03*
X900000D02*
D03*
X920000Y508000D02*
D03*
D22*
X1022570Y510500D02*
D03*
X1005370Y525500D02*
D03*
X1022570D02*
D03*
X1005370Y510500D02*
D03*
X1022570Y515500D02*
D03*
Y520500D02*
D03*
X1005370Y515500D02*
D03*
Y520500D02*
D03*
D23*
X545500Y455250D02*
D03*
X549500Y415750D02*
D03*
Y455250D02*
D03*
X533500Y415750D02*
D03*
X537500D02*
D03*
X541500D02*
D03*
X545500D02*
D03*
X553500D02*
D03*
X557500D02*
D03*
Y455250D02*
D03*
X553500D02*
D03*
X541500D02*
D03*
X537500D02*
D03*
X533500D02*
D03*
D24*
X1102000Y525000D02*
D03*
Y511000D02*
D03*
X1110000Y525000D02*
D03*
Y511000D02*
D03*
D25*
X989971Y525000D02*
D03*
X935000Y525000D02*
D03*
X831750Y510750D02*
D03*
X507711Y435000D02*
D03*
X556036Y397036D02*
D03*
X589036Y435035D02*
D03*
X778750Y495750D02*
D03*
X831750Y524750D02*
D03*
X935000Y511000D02*
D03*
X989971Y511000D02*
D03*
X507711Y421000D02*
D03*
X556036Y383036D02*
D03*
X589036Y421035D02*
D03*
X1128000Y144000D02*
D03*
X1128006Y131000D02*
D03*
X1073000Y132000D02*
D03*
Y146000D02*
D03*
X1128000Y158000D02*
D03*
X1128006Y117000D02*
D03*
X778750Y509750D02*
D03*
X544036Y337035D02*
D03*
Y351036D02*
D03*
X529035Y337035D02*
D03*
Y351036D02*
D03*
X574036Y337035D02*
D03*
Y351036D02*
D03*
X589036Y337035D02*
D03*
Y351036D02*
D03*
X559036Y337035D02*
D03*
Y351036D02*
D03*
X514036Y337035D02*
D03*
Y351036D02*
D03*
X499036Y337035D02*
D03*
Y351036D02*
D03*
X484036Y337035D02*
D03*
Y351036D02*
D03*
X604036Y337035D02*
D03*
Y351036D02*
D03*
D26*
X796750Y492750D02*
D03*
X570500Y476500D02*
D03*
X451000Y14000D02*
D03*
X691000D02*
D03*
X522000Y516000D02*
D03*
X522000Y504000D02*
D03*
X571000Y14000D02*
D03*
X1099000Y496000D02*
D03*
X810750Y492750D02*
D03*
X570500Y491500D02*
D03*
X387000Y14000D02*
D03*
X507000D02*
D03*
X627000D02*
D03*
X508000Y516000D02*
D03*
X508000Y504000D02*
D03*
X1099000Y94000D02*
D03*
X993000Y135000D02*
D03*
X1177000Y142000D02*
D03*
X1113000Y496000D02*
D03*
X437000Y14000D02*
D03*
X426000Y14000D02*
D03*
X1163000Y142000D02*
D03*
X993000Y147000D02*
D03*
X979000D02*
D03*
X979000Y135000D02*
D03*
X557000Y14000D02*
D03*
X1058000Y118000D02*
D03*
X1130000Y84000D02*
D03*
X1144000D02*
D03*
X1072000Y118000D02*
D03*
X1113000Y94000D02*
D03*
X1144000Y71000D02*
D03*
X1130000Y71000D02*
D03*
X641000Y14000D02*
D03*
X546000Y14000D02*
D03*
X532000D02*
D03*
X521000Y14000D02*
D03*
X652000Y14000D02*
D03*
X666000D02*
D03*
X677000Y14000D02*
D03*
X412000Y14000D02*
D03*
X401000Y14000D02*
D03*
X556500Y491500D02*
D03*
Y476500D02*
D03*
D27*
X565250Y435500D02*
D03*
X525750D02*
D03*
X565250Y431500D02*
D03*
X525750Y439500D02*
D03*
Y447500D02*
D03*
Y443500D02*
D03*
Y431500D02*
D03*
Y427500D02*
D03*
Y423500D02*
D03*
X565250D02*
D03*
Y427500D02*
D03*
Y439500D02*
D03*
Y443500D02*
D03*
Y447500D02*
D03*
D28*
X646050Y436950D02*
D03*
X655950Y427050D02*
D03*
D29*
X798750Y506750D02*
D03*
X803750D02*
D03*
X808750D02*
D03*
X798750Y528750D02*
D03*
X803750D02*
D03*
X808750D02*
D03*
D30*
X817250Y510250D02*
D03*
X790250Y520250D02*
D03*
Y515250D02*
D03*
X817250Y520250D02*
D03*
Y525250D02*
D03*
Y515250D02*
D03*
X790250Y510250D02*
D03*
Y525250D02*
D03*
D31*
X1011699Y152500D02*
D03*
D32*
Y133500D02*
D03*
X1032301Y143000D02*
D03*
D33*
X1233001Y310000D02*
D03*
Y290000D02*
D03*
X1200001Y300000D02*
D03*
X1150001Y325000D02*
D03*
X1125001D02*
D03*
X1100001D02*
D03*
D34*
X1230001Y327250D02*
D03*
Y272750D02*
D03*
D35*
X1199701Y324250D02*
D03*
Y275750D02*
D03*
D36*
X933001Y294159D02*
D03*
D37*
Y268759D02*
D03*
Y243359D02*
D03*
D38*
X705000Y103000D02*
D03*
X614000D02*
D03*
X705000Y58000D02*
D03*
X614000D02*
D03*
X465000Y58000D02*
D03*
X374000D02*
D03*
X585000Y58000D02*
D03*
X494000D02*
D03*
X465000Y103000D02*
D03*
X374000D02*
D03*
X494000Y103000D02*
D03*
X585000D02*
D03*
D39*
X645750Y196500D02*
D03*
Y205500D02*
D03*
Y214500D02*
D03*
X525750Y196500D02*
D03*
Y205500D02*
D03*
Y214500D02*
D03*
X405750Y196500D02*
D03*
Y205500D02*
D03*
Y214500D02*
D03*
X435250Y196500D02*
D03*
Y205500D02*
D03*
Y214500D02*
D03*
X555250Y196500D02*
D03*
Y205500D02*
D03*
Y214500D02*
D03*
X675250Y196500D02*
D03*
Y205500D02*
D03*
Y214500D02*
D03*
D40*
X545500Y435500D02*
D03*
D41*
X1101000Y117000D02*
D03*
X1110500D02*
D03*
Y145000D02*
D03*
X1091500Y145000D02*
D03*
Y117000D02*
D03*
D42*
X1083500Y46500D02*
D03*
X1074000Y26500D02*
D03*
X1093000D02*
D03*
X1219000Y153000D02*
D03*
X1209500Y173000D02*
D03*
X1228500D02*
D03*
X1129000Y46500D02*
D03*
X1138500Y26500D02*
D03*
X1119500D02*
D03*
D43*
X932500Y70000D02*
D03*
Y90000D02*
D03*
D44*
X965000Y80000D02*
D03*
D45*
X1058000Y153500D02*
D03*
X1058000Y138500D02*
D03*
M02*
